<svg width="240" height="148" viewBox="0 0 240 148" fill="none" xmlns="http://www.w3.org/2000/svg">
<path d="M2.92893 66.9289C-0.976311 70.8342 -0.976311 77.1658 2.92893 81.0711L66.5685 144.711C70.4738 148.616 76.8054 148.616 80.7107 144.711C84.6159 140.805 84.6159 134.474 80.7107 130.569L24.1421 74L80.7107 17.4315C84.6159 13.5262 84.6159 7.19456 80.7107 3.28932C76.8054 -0.615921 70.4738 -0.615921 66.5685 3.28932L2.92893 66.9289ZM231 64L10 64V84L231 84V64Z" fill="black"/>
<path d="M196 74C196 68.4772 200.477 64 206 64H230C235.523 64 240 68.4772 240 74V74C240 79.5228 235.523 84 230 84H206C200.477 84 196 79.5228 196 74V74Z" fill="black"/>
</svg>
