<svg width="592" height="588" viewBox="0 0 592 588" fill="none" xmlns="http://www.w3.org/2000/svg">
<g filter="url(#filter0_ddddii)">
<path d="M469.132 232.508C529.231 196.923 428.011 375.639 96.6745 359.033C-234.662 342.426 707.025 -23.3166 369.742 187.639C128.673 338.417 252.279 314.761 342.415 288.996C375.305 279.594 439.698 249.936 469.132 232.508V232.508Z" fill="url(#paint0_linear)"/>
<path d="M469.387 232.938C473.122 230.727 476.203 229.364 478.62 228.731C481.058 228.092 482.719 228.22 483.71 228.834C484.654 229.419 485.139 230.55 484.972 232.347C484.805 234.149 483.984 236.516 482.444 239.362C476.287 250.747 458.994 269.176 429.421 288.233C370.308 326.326 262.274 366.832 96.6995 358.533C76.011 357.497 60.3219 355.098 48.9925 351.576C37.6496 348.05 30.7577 343.423 27.542 337.993C24.3467 332.597 24.7135 326.285 28.1885 319.192C31.6689 312.087 38.2404 304.265 47.3265 295.95C83.6785 262.684 159.717 222.029 235.64 188.457C311.563 154.886 387.241 128.454 422.84 123.582C427.284 122.974 431.088 122.704 434.18 122.796C437.284 122.887 439.62 123.341 441.165 124.141C441.931 124.538 442.486 125.011 442.85 125.552C443.211 126.089 443.403 126.719 443.404 127.461C443.406 128.971 442.623 130.954 440.847 133.466C437.306 138.477 430.021 145.317 418.315 154.219C406.62 163.111 390.55 174.034 369.477 187.215C309.206 224.912 271.701 251.722 250.764 270.335C240.302 279.634 233.937 286.922 230.949 292.527C229.454 295.331 228.781 297.759 228.902 299.831C229.024 301.927 229.956 303.614 231.562 304.91C233.152 306.193 235.39 307.085 238.13 307.66C240.876 308.236 244.164 308.501 247.887 308.504C255.334 308.511 264.582 307.469 274.842 305.725C295.366 302.235 320.013 295.919 342.552 289.476C375.493 280.06 439.926 250.382 469.387 232.938Z" stroke="url(#paint1_linear)"/>
</g>
<defs>
<filter id="filter0_ddddii" x="-4.99997" y="-5.00002" width="596.832" height="592.765" filterUnits="userSpaceOnUse" color-interpolation-filters="sRGB">
<feFlood flood-opacity="0" result="BackgroundImageFix"/>
<feColorMatrix in="SourceAlpha" type="matrix" values="0 0 0 0 0 0 0 0 0 0 0 0 0 0 0 0 0 0 127 0" result="hardAlpha"/>
<feOffset dx="40" dy="40"/>
<feGaussianBlur stdDeviation="10"/>
<feComposite in2="hardAlpha" operator="out"/>
<feColorMatrix type="matrix" values="0 0 0 0 0.466667 0 0 0 0 0.171111 0 0 0 0 0.277511 0 0 0 0.33 0"/>
<feBlend mode="normal" in2="BackgroundImageFix" result="effect1_dropShadow"/>
<feColorMatrix in="SourceAlpha" type="matrix" values="0 0 0 0 0 0 0 0 0 0 0 0 0 0 0 0 0 0 127 0" result="hardAlpha"/>
<feOffset dx="5" dy="5"/>
<feGaussianBlur stdDeviation="5"/>
<feComposite in2="hardAlpha" operator="out"/>
<feColorMatrix type="matrix" values="0 0 0 0 0.385208 0 0 0 0 0.716667 0 0 0 0 0.716667 0 0 0 0.06 0"/>
<feBlend mode="normal" in2="effect1_dropShadow" result="effect2_dropShadow"/>
<feColorMatrix in="SourceAlpha" type="matrix" values="0 0 0 0 0 0 0 0 0 0 0 0 0 0 0 0 0 0 127 0" result="hardAlpha"/>
<feOffset dx="-5" dy="-5"/>
<feGaussianBlur stdDeviation="5"/>
<feComposite in2="hardAlpha" operator="out"/>
<feColorMatrix type="matrix" values="0 0 0 0 1 0 0 0 0 0.870833 0 0 0 0 0.870833 0 0 0 0.17 0"/>
<feBlend mode="normal" in2="effect2_dropShadow" result="effect3_dropShadow"/>
<feColorMatrix in="SourceAlpha" type="matrix" values="0 0 0 0 0 0 0 0 0 0 0 0 0 0 0 0 0 0 127 0" result="hardAlpha"/>
<feOffset dx="30" dy="30"/>
<feGaussianBlur stdDeviation="20"/>
<feComposite in2="hardAlpha" operator="out"/>
<feColorMatrix type="matrix" values="0 0 0 0 0.467639 0 0 0 0 0.616667 0 0 0 0 0.598783 0 0 0 0.35 0"/>
<feBlend mode="normal" in2="effect3_dropShadow" result="effect4_dropShadow"/>
<feBlend mode="normal" in="SourceGraphic" in2="effect4_dropShadow" result="shape"/>
<feColorMatrix in="SourceAlpha" type="matrix" values="0 0 0 0 0 0 0 0 0 0 0 0 0 0 0 0 0 0 127 0" result="hardAlpha"/>
<feOffset dx="20" dy="20"/>
<feGaussianBlur stdDeviation="20"/>
<feComposite in2="hardAlpha" operator="arithmetic" k2="-1" k3="1"/>
<feColorMatrix type="matrix" values="0 0 0 0 0.816667 0 0 0 0 0.806118 0 0 0 0 0.711181 0 0 0 0.48 0"/>
<feBlend mode="normal" in2="shape" result="effect5_innerShadow"/>
<feColorMatrix in="SourceAlpha" type="matrix" values="0 0 0 0 0 0 0 0 0 0 0 0 0 0 0 0 0 0 127 0" result="hardAlpha"/>
<feOffset dx="-20" dy="-20"/>
<feGaussianBlur stdDeviation="20"/>
<feComposite in2="hardAlpha" operator="arithmetic" k2="-1" k3="1"/>
<feColorMatrix type="matrix" values="0 0 0 0 0.231736 0 0 0 0 0.332517 0 0 0 0 0.591667 0 0 0 0.26 0"/>
<feBlend mode="normal" in2="effect5_innerShadow" result="effect6_innerShadow"/>
</filter>
<linearGradient id="paint0_linear" x1="52.193" y1="228.271" x2="424.306" y2="139.152" gradientUnits="userSpaceOnUse">
<stop stop-color="#B1A07D"/>
<stop offset="0.333333" stop-color="#A39D6B"/>
<stop offset="1" stop-color="#92435F"/>
</linearGradient>
<linearGradient id="paint1_linear" x1="52.193" y1="228.271" x2="445.224" y2="-152.487" gradientUnits="userSpaceOnUse">
<stop stop-color="#DFCECE" stop-opacity="0.18"/>
<stop offset="1" stop-color="#763232" stop-opacity="0.03"/>
</linearGradient>
</defs>
</svg>
