<svg width="247" height="191" viewBox="0 0 247 191" fill="none" xmlns="http://www.w3.org/2000/svg">
<g filter="url(#filter0_ddii)">
<path d="M190.163 90.1191C200.346 95.3124 196.991 110.647 185.57 111.115V111.115C183.742 111.189 181.962 111.714 180.386 112.642L156.34 126.804C144.82 133.589 130.954 135.14 118.219 131.068L49.7253 109.166C39.1519 105.785 37.2968 91.6177 46.6432 85.6284V85.6284C53.4863 81.2433 54.7353 71.7542 49.26 65.7477L43.5216 59.4526C28.3041 42.7587 47.6272 17.4258 67.7502 27.6885L190.163 90.1191Z" fill="url(#paint0_linear)"/>
<path d="M118.371 130.592L49.8776 108.69C39.7073 105.438 37.9228 91.8104 46.913 86.0494C54.0169 81.4971 55.3135 71.6463 49.6295 65.4109L43.8911 59.1157C29.0484 42.833 47.8956 18.124 67.523 28.134L189.936 90.5645C199.66 95.5241 196.456 110.169 185.549 110.615C183.64 110.693 181.779 111.241 180.132 112.211L156.087 126.373C144.689 133.086 130.97 134.621 118.371 130.592Z" stroke="url(#paint1_linear)" stroke-opacity="0.29"/>
</g>
<defs>
<filter id="filter0_ddii" x="0.278076" y="0.353394" width="245.752" height="190.036" filterUnits="userSpaceOnUse" color-interpolation-filters="sRGB">
<feFlood flood-opacity="0" result="BackgroundImageFix"/>
<feColorMatrix in="SourceAlpha" type="matrix" values="0 0 0 0 0 0 0 0 0 0 0 0 0 0 0 0 0 0 127 0" result="hardAlpha"/>
<feOffset dx="10" dy="10"/>
<feGaussianBlur stdDeviation="15"/>
<feComposite in2="hardAlpha" operator="out"/>
<feColorMatrix type="matrix" values="0 0 0 0 0.370833 0 0 0 0 0.186962 0 0 0 0 0.186962 0 0 0 0.35 0"/>
<feBlend mode="normal" in2="BackgroundImageFix" result="effect1_dropShadow"/>
<feColorMatrix in="SourceAlpha" type="matrix" values="0 0 0 0 0 0 0 0 0 0 0 0 0 0 0 0 0 0 127 0" result="hardAlpha"/>
<feOffset dx="-3" dy="-3"/>
<feGaussianBlur stdDeviation="5"/>
<feComposite in2="hardAlpha" operator="out"/>
<feColorMatrix type="matrix" values="0 0 0 0 0.710347 0 0 0 0 0.883333 0 0 0 0 0.872954 0 0 0 0.15 0"/>
<feBlend mode="normal" in2="effect1_dropShadow" result="effect2_dropShadow"/>
<feBlend mode="normal" in="SourceGraphic" in2="effect2_dropShadow" result="shape"/>
<feColorMatrix in="SourceAlpha" type="matrix" values="0 0 0 0 0 0 0 0 0 0 0 0 0 0 0 0 0 0 127 0" result="hardAlpha"/>
<feOffset dx="10" dy="10"/>
<feGaussianBlur stdDeviation="10"/>
<feComposite in2="hardAlpha" operator="arithmetic" k2="-1" k3="1"/>
<feColorMatrix type="matrix" values="0 0 0 0 0.887139 0 0 0 0 0.908333 0 0 0 0 0.756944 0 0 0 0.19 0"/>
<feBlend mode="normal" in2="shape" result="effect3_innerShadow"/>
<feColorMatrix in="SourceAlpha" type="matrix" values="0 0 0 0 0 0 0 0 0 0 0 0 0 0 0 0 0 0 127 0" result="hardAlpha"/>
<feOffset dx="-5" dy="-5"/>
<feGaussianBlur stdDeviation="10"/>
<feComposite in2="hardAlpha" operator="arithmetic" k2="-1" k3="1"/>
<feColorMatrix type="matrix" values="0 0 0 0 0.616667 0 0 0 0 0.0565277 0 0 0 0 0.0565277 0 0 0 0.21 0"/>
<feBlend mode="normal" in2="effect3_innerShadow" result="effect4_innerShadow"/>
</filter>
<linearGradient id="paint0_linear" x1="210.335" y1="148.434" x2="38.7265" y2="95.89" gradientUnits="userSpaceOnUse">
<stop stop-color="#85969D"/>
<stop offset="1" stop-color="#47734D"/>
</linearGradient>
<linearGradient id="paint1_linear" x1="277.105" y1="162.242" x2="105.497" y2="109.698" gradientUnits="userSpaceOnUse">
<stop stop-color="#7B97B8"/>
<stop offset="1" stop-color="#EE206A" stop-opacity="0.65"/>
</linearGradient>
</defs>
</svg>
